HIERARCHY
ROOT Hips
{
  OFFSET 1.44925e-005 102.336 -0.101585
  CHANNELS 6 Xposition Yposition Zposition Zrotation Xrotation Yrotation
  JOINT LeftUpLeg
  {
    OFFSET 8.9458 -8.66707 0.101652
    CHANNELS 3 Zrotation Xrotation Yrotation
    JOINT LeftLeg
    {
      OFFSET 0 -44.4227 1.3727
      CHANNELS 3 Zrotation Xrotation Yrotation
      JOINT LeftFoot
      {
        OFFSET -0.253549 -42.0924 -1.46059
        CHANNELS 3 Zrotation Xrotation Yrotation
        JOINT LeftToes
        {
          OFFSET -0.04 -4.41509 8.4991
          CHANNELS 3 Zrotation Xrotation Yrotation
          End Site
          {
            OFFSET 0.08 -0.047448 9.77979
          }
        }
      }
    }
  }
  JOINT Spine
  {
    OFFSET 0 11.8905 0
    CHANNELS 3 Zrotation Xrotation Yrotation
    JOINT Spine1
    {
      OFFSET 0 25.6574 0.127663
      CHANNELS 3 Zrotation Xrotation Yrotation
      JOINT RightShoulder
      {
        OFFSET -8.99 -0.362252 -0.22
        CHANNELS 3 Zrotation Xrotation Yrotation
        JOINT RightArm
        {
          OFFSET -10.2827 -0.00338 0.322123
          CHANNELS 3 Zrotation Xrotation Yrotation
          JOINT RightForeArm
          {
            OFFSET -26.364 0.099144 -1.42434
            CHANNELS 3 Zrotation Xrotation Yrotation
            JOINT RightHand
            {
              OFFSET -22.0324 0.085362 1.02216
              CHANNELS 3 Zrotation Xrotation Yrotation
              End Site
              {
                OFFSET -13.3284 -0.6 1.50291
              }
            }
          }
        }
      }
      JOINT LeftShoulder1
      {
        OFFSET 8.99 -0.362252 -0.22
        CHANNELS 3 Zrotation Xrotation Yrotation
        JOINT LeftArm
        {
          OFFSET 10.2827 -0.00337999 0.322123
          CHANNELS 3 Zrotation Xrotation Yrotation
          JOINT LeftForeArm
          {
            OFFSET 26.2597 0.099144 -1.42434
            CHANNELS 3 Zrotation Xrotation Yrotation
            JOINT LeftHand
            {
              OFFSET 22.0902 0.085362 1.02216
              CHANNELS 3 Zrotation Xrotation Yrotation
              End Site
              {
                OFFSET 13.419 -0.6 1.50291
              }
            }
          }
        }
      }
      JOINT Head
      {
        OFFSET 0 8.73416 0.011341
        CHANNELS 3 Zrotation Xrotation Yrotation
        End Site
        {
          OFFSET -0.29 12.7742 2.51395
        }
      }
    }
  }
  JOINT RightUpLeg
  {
    OFFSET -8.9458 -8.66707 0.101652
    CHANNELS 3 Zrotation Xrotation Yrotation
    JOINT RightLeg
    {
      OFFSET 0 -44.4227 1.3727
      CHANNELS 3 Zrotation Xrotation Yrotation
      JOINT RightFoot
      {
        OFFSET 0.253549 -42.0924 -1.46059
        CHANNELS 3 Zrotation Xrotation Yrotation
        JOINT RightToes
        {
          OFFSET 0.04 -4.41509 8.4991
          CHANNELS 3 Zrotation Xrotation Yrotation
          End Site
          {
            OFFSET -0.08 -0.137448 9.77979
          }
        }
      }
    }
  }
}
MOTION
Frames:	8
Frame Time:	0.0333333
196.338 103.029 6.73386 -4.3936 -0.562135 -91.1771 -2.11142 0.882493 1.79433 -0.741969 8.82857 20.3436 -1.51463 -10.4737 0.00618614 -1.36199e-009 8.75215e-006 -1.46445e-008 0.28708 11.6132 -0.454341 -0.677338 -4.69974 -0.301332 36.3474 1.71696 -0.00280107 42.5845 -18.5216 5.11008 6.16189 39.9811 10.2798 -7.93667 9.51929 0.717254 -44.6934 3.6438 -3.5737 -27.4181 -10.7503 0.905408 -3.65391 33.4006 -16.1733 5.82328 9.61819 -0.917488 0.427597 -1.5178 -1.8019 -1.16664 1.52242 -4.62981 0.579907 11.7913 -13.5748 3.76588 -13.6393 -0.0180729 0.0462048 0.000530889 0.662642 
196.34 103.029 6.69422 -4.36411 -0.559987 -91.2194 -2.09299 0.846217 1.79387 -0.726581 8.84275 20.3816 -1.53673 -10.4737 0.00618614 -1.36199e-009 8.75215e-006 -1.46445e-008 0.296688 11.678 -0.426675 -0.704018 -4.81535 -0.269955 36.388 1.71696 -0.00209421 42.5402 -18.4696 5.02526 6.21004 39.951 10.244 -8.0677 9.50419 0.851383 -44.5334 3.63095 -3.57365 -27.6066 -10.7302 0.898301 -3.61283 33.4865 -16.2015 5.82328 9.61819 -0.917488 0.618019 -0.844469 -0.659605 -1.14766 1.4906 -4.62097 0.597651 11.7783 -13.5772 3.76331 -13.6326 -0.0180724 0.0462048 0.000530889 0.662642 
196.35 103.029 6.62814 -4.30802 -0.549916 -91.2469 -2.061 0.743415 1.77452 -0.682088 8.91694 20.4136 -1.59253 -10.4737 0.00618614 -1.36199e-009 8.75215e-006 -1.46445e-008 0.347284 11.8287 -0.406915 -0.746983 -5.06969 -0.242957 36.3781 1.71696 0.00534422 42.518 -18.5038 4.88338 6.28228 40.0549 10.146 -8.11779 9.48511 1.11756 -44.4278 3.61958 -3.5736 -27.7237 -10.5888 0.928795 -3.59185 33.4582 -16.2403 5.82328 9.61819 -0.917488 0.714792 -1.20812 -1.27188 -1.1108 1.42463 -4.60801 0.6393 11.7673 -13.5995 3.72128 -13.6311 -0.0180723 0.0462048 0.000530889 0.662642 
196.363 103.029 6.57271 -4.26356 -0.555731 -91.2727 -2.05212 0.652797 1.74091 -0.642139 8.98622 20.4567 -1.6518 -10.4731 0.00618612 -1.36199e-009 8.75215e-006 -1.46445e-008 0.393483 11.9108 -0.391244 -0.75537 -5.20474 -0.223482 36.2834 1.71696 0.0267421 42.5684 -18.5934 4.82114 6.39182 39.9306 10.0262 -8.08341 9.49275 1.02467 -44.5316 3.62384 -3.57326 -27.6032 -10.3697 0.964536 -3.617 33.2531 -16.2724 5.82328 9.61819 -0.917488 0.552284 -2.11293 -3.19969 -1.09028 1.34744 -4.59474 0.657763 11.8032 -13.5926 3.66036 -13.6523 -0.0180739 0.0462048 0.000530889 0.662642 
196.371 103.029 6.53003 -4.26518 -0.580277 -91.2974 -2.05456 0.645554 1.73113 -0.638622 8.99676 20.4864 -1.68843 -10.4687 0.00604701 -1.36199e-009 8.75215e-006 -1.46445e-008 0.334688 11.8289 -0.357903 -0.618695 -5.02383 -0.211014 36.1585 1.7173 0.0450015 42.6424 -18.6854 4.92692 6.50923 39.6142 9.91254 -8.13728 9.52285 0.489422 -44.7582 3.64325 -3.57604 -27.397 -10.3545 0.920422 -3.63578 33.1769 -16.2702 5.82328 9.61819 -0.917488 0.398961 -2.02193 -3.05066 -1.08199 1.31483 -4.57568 0.63608 11.858 -13.5798 3.62261 -13.681 -0.0181451 0.0462048 0.000530889 0.662642 
196.375 103.027 6.48301 -4.30316 -0.600005 -91.2548 -2.03249 0.680706 1.75585 -0.654442 8.99873 20.4249 -1.71323 -10.4609 0.00553692 -1.36199e-009 8.75215e-006 -1.46445e-008 0.194329 11.7033 -0.336569 -0.378617 -4.70328 -0.231737 36.1184 1.71916 0.0493269 42.6047 -18.7526 5.11051 6.55767 39.5974 9.82396 -8.29407 9.53872 0.107766 -44.9193 3.66295 -3.58977 -27.2954 -10.6496 0.821883 -3.61732 33.4102 -16.2203 5.82328 9.61819 -0.917488 0.287776 -0.820853 -0.644203 -1.06031 1.35038 -4.5578 0.619697 11.8728 -13.6475 3.61347 -13.697 -0.0185157 0.0462048 0.000530889 0.662642 
196.375 103.026 6.43103 -4.33641 -0.611634 -91.1312 -2.00461 0.686452 1.76585 -0.645478 9.03858 20.2935 -1.74424 -10.4566 0.00520337 -1.36199e-009 8.75215e-006 -1.46445e-008 0.138006 11.7251 -0.366199 -0.285209 -4.60841 -0.279752 36.2471 1.72062 0.0416352 42.3735 -18.6941 5.18303 6.53621 39.8665 9.80443 -8.35658 9.52463 0.285486 -44.8966 3.66308 -3.59345 -27.3159 -10.9721 0.805443 -3.60615 33.7064 -16.1461 5.82328 9.61819 -0.917488 0.240293 -0.536061 0.348569 -1.03678 1.40406 -4.562 0.64177 11.8598 -13.7829 3.61056 -13.7128 -0.0190224 0.0462048 0.000530889 0.662642 
196.373 103.025 6.38982 -4.34629 -0.640088 -91.0182 -2.02578 0.680252 1.71609 -0.600982 9.05706 20.2232 -1.76882 -10.44 0.00501732 -1.36199e-009 8.75215e-006 -1.46445e-008 0.231242 11.8956 -0.411041 -0.438758 -4.79502 -0.296512 36.4298 1.72011 0.028387 42.0987 -18.4619 5.10523 6.52711 39.8181 9.87766 -8.23334 9.50803 0.646344 -44.7695 3.64596 -3.57959 -27.341 -11.0631 0.909861 -3.6587 33.7886 -16.064 5.82328 9.61819 -0.917488 0.338429 -1.95719 -1.72271 -1.04398 1.41915 -4.58794 0.665063 11.8811 -13.8714 3.60812 -13.7479 -0.0196484 0.0462048 0.000530889 0.662642 
